<svg xmlns="http://www.w3.org/2000/svg" viewBox="0 0 512 512">
  <path fill="#61DAFB" d="M418.2 177.2c-5.4-1.8-10.8-3.5-16.2-5.1.9-3.7 1.7-7.4 2.5-11.1 12.3-59.6 4.2-107.5-23.1-123.3-26.3-15.1-69.2.6-112.6 38.4-4.3 3.7-8.5 7.6-12.5 11.5-2.7-2.6-5.5-5.2-8.3-7.7-45.5-40.4-91.1-57.4-118.4-41.5-26.2 15.2-34 60.3-23 116.7 1.1 5.6 2.3 11.1 3.7 16.7-6.4 1.8-12.7 3.8-18.6 5.9C38.3 196.2 0 225.4 0 255.6c0 31.1 40.1 61.3 101.9 79.5 4.9 1.5 9.9 2.9 14.9 4.2-1.5 6-2.8 11.9-4 18-10.5 55.5-2.3 99.5 23.9 114.6 27 15.6 72.4-.4 116.6-39.1 3.5-3.1 7-6.3 10.5-9.7 4.4 4.3 9 8.4 13.6 12.4 42.8 36.8 85.1 51.7 111.2 36.6 27-15.6 35.8-62.9 24.4-120.5-.9-4.4-1.9-8.9-3-13.5 3.2-.9 6.3-1.9 9.4-2.9 57.7-19.1 99.5-50 99.5-81.7 0-30.3-39.4-59.7-101.8-78.4zm-47.5-128.9c16.2-9.3 32.9-6.2 45.8 2.8 14.2 10 20.1 31 15.6 61.8-.7 4.9-1.7 9.9-2.8 15.1-19.9-4.5-41-8-63.1-10.2-12.1-16.8-24.8-32.1-37.8-45.5 14.5-14.2 28.5-25.1 42.3-24zM290.5 336.6c-5.6 11.3-11.4 22.4-17.4 33.2-10 .9-20.3 1.4-30.6 1.4-10.5 0-20.8-.5-30.9-1.4-6-10.8-11.8-21.9-17.4-33.2-5.4-11-10.5-22.1-15.2-33.3 4.7-11.2 9.7-22.3 15.1-33.3 5.5-11.3 11.3-22.4 17.3-33.3 10.1-.9 20.4-1.4 30.8-1.4 10.5 0 20.8.5 30.9 1.4 6 10.9 11.8 22 17.3 33.3 5.4 11 10.4 22.1 15.1 33.3-4.8 11.1-9.8 22.2-15 33.3zm26.9-65c7 15.6 13 31.1 18.1 46.1-15.7 3.6-32.2 6.6-49.2 8.8 5.6-9.7 11.1-19.8 16.2-30.1 5.4-10.6 10.4-21.3 14.9-24.8zm-92.1 46.1c-17-2.2-33.4-5.2-49.1-8.8 5-15 11-30.5 18-46.1 4.5 3.5 9.6 14.2 14.9 24.8 5.2 10.3 10.6 20.3 16.2 30.1zm-17.4 64.7c-5.6-9.7-11-19.7-16.2-30-5.4-10.6-10.4-21.3-14.9-24.8-7 15.6-13 31-18 46 15.7 3.6 32.1 6.6 49.1 8.8zm53.5 24.5c-15.8 13.9-31.7 24.4-46.9 30.8-14.2 6-26.9 6.3-35.3.7-8.9-5.9-15.9-17.9-20.1-37.5-3.1-14.4-3.2-32.3.2-52.4 2.3-13.5 6.1-28 11.1-43.2 17.1 3.7 35 6.5 53.7 8.2 19 21.5 39.1 40.2 59.2 55.1-3.2 3.1-6.4 6.1-9.6 8.9-4.1 3.7-8.4 7.1-12.3 9.4zm31.5-104.1c-15.7-1.7-31.6-4-47.7-7 5-16 9.6-32.2 13.5-48.1 6.6 13.5 13 27.6 19 41.8 5.2 12.4 9.9 25.1 15.2 13.3zm-88.8-193.1c14.2-6.1 30.1-7.1 45.3-1.1 17.7 7 26.1 26.2 26 53.2-.1 18.4-2.8 38.6-8.1 60.7-15.9-3.5-32.5-6.3-49.5-8.2-10.7-15.9-22.1-30.9-33.8-44.6 5.8-5.6 11.6-10.8 17.5-15.5 8.6-6.9 17.7-11.9 26.5-16.6 5.5-3 12.7-12.9 19.6-15.7-14.7-5.1-29.7 6.5-44.5 11.8zm33.8 141.7c6.3-15.9 11.6-32.1 16-48.1 16.2 3 31.9 7 46.5 11.9-4.7 14.3-11.3 29.7-19.2 45.4-10.6-6.6-21.7-12.8-33.3-18.6-3.5-1.8-10-9.2-10-3.7.1 6.1 10 7.4 0 13.1zm-66-77.6c-2.1-3.2-4.2-6.5-6.2-9.7 11.9-5.5 25-9.5 38.5-11.8-4 13.1-7.3 26.6-9.7 40.2-7.4-6.2-14.8-12.6-22.6-18.7zm0 151.3c7.8-6.1 15.2-12.5 22.6-18.7 2.4 13.7 5.7 27.1 9.8 40.3-14-2.5-27.1-6.8-39.6-12.3 2.4-3.1 4.8-6.2 7.2-9.3zm129.2 25.4c-4.8 16-10.1 32.2-16.4 48.1-14.6-3-29.2-6.3-43.5-9.9 7.8-15.7 14.4-31 19.9-45.6 10.6 6.9 21.3 13.2 32.5 18.6 1.8.9 7.5 8.3 7.5 1.5 0-7.8-11.5-8.9 0-12.7zm1.4-18.7c12.4-7.8 23.2-15.8 32.5-23.8 13.1 15.4 24.5 30.5 34.1 44.6-16.9 1.9-33.6 4.6-49.8 8.1-5.4-10.8-11-21.5-16.8-28.9z"/>
  <circle fill="#61DAFB" cx="256" cy="256" r="36.4"/>
</svg> 