<svg xmlns="http://www.w3.org/2000/svg" viewBox="0 0 512 512">
  <path fill="#366A96" d="M255.6 0c-19 0-37.4 1.7-53.5 4.6-47.4 8.5-56 26.3-56 59.1v43.3h112v16H105.6c-33 0-62 19.9-71 57.7-10.4 43.4-10.9 70.5 0 115.8 8 33.8 27.3 57.7 60.4 57.7h39.1v-52c0-37.6 32.6-70.8 71-70.8h113.4c31.6 0 56-26 56-57.8v-108.4c0-30.8-26-53.9-56-59.1-18.9-3.3-38.5-4.9-57.9-4.9zm-61.1 33.3c11.6 0 21.1 9.6 21.1 21.4s-9.5 21.4-21.1 21.4c-11.7 0-21.1-9.6-21.1-21.4s9.4-21.4 21.1-21.4z"/>
  <path fill="#FFD43B" d="M367.3 123h-39.1v45.4c0 35.2-29.8 64.9-71 64.9h-113.4c-31.1 0-56 26.6-56 57.8v108.5c0 30.8 26.8 48.9 56 57.8 35 10.6 68.6 12.5 113.4 0 29.9-8.3 56-25.1 56-57.8v-43.3h-113.3v-16h169.4c33.1 0 45.5-23.1 56-57.7 10.9-35.7 10.4-70.1 0-115.8-7.5-33-21.9-57.7-57.9-57.7zm-64.2 305.9c11.7 0 21.1 9.6 21.1 21.4s-9.4 21.4-21.1 21.4c-11.6 0-21.1-9.6-21.1-21.4.1-11.8 9.5-21.4 21.1-21.4z"/>
</svg> 