<svg xmlns="http://www.w3.org/2000/svg" viewBox="0 0 512 512">
  <rect width="512" height="512" rx="50" fill="#3178c6"/>
  <path fill="white" d="M317 407v50c8.1 4.2 18 7.3 29 9.4s23 3.1 35 3.1c12 0 23-1.1 34-3.4 11-2.3 20-6.1 28-11.4 8.1-5.3 14-12 19-21s7.1-19 7.1-32c0-9.1-1.4-17-4.1-24s-6.6-13-12-18c-5.1-5.3-11-10-18-14s-15-8.2-24-12c-6.6-2.7-12-5.3-18-7.9-5.2-2.6-9.6-5.2-13-7.8-3.4-2.6-6-5.3-7.8-8-1.8-2.7-2.8-5.5-2.8-8.5 0-3 .8-5.7 2.3-8s3.5-4.3 6.1-5.9c2.6-1.6 5.5-2.7 8.9-3.5 3.4-.8 7-1.2 11-1.2 3.2 0 6.4.3 9.9 1 3.4.7 6.9 1.5 10 2.7 3.4 1.2 6.6 2.5 9.5 4.1 3 1.5 5.5 3.1 7.5 4.7V278c-7.6-2.9-15-5.1-23-6.6s-16-2.2-26-2.2c-12 0-23 1.3-33 3.8-10 2.6-19 6.5-27 12-7.6 5.4-14 12-18 20-4.3 8.2-6.5 18-6.5 28 0 14 3.3 26 9.8 35 6.5 9.1 17 17 31 24 5.7 2.4 11 4.8 17 7.1 5.5 2.3 10 4.8 15 7.3 4.3 2.5 7.7 5.2 10 8.1 2.5 2.9 3.8 6.1 3.8 9.5 0 2.7-.65 5.1-1.9 7.3s-3 4.2-5.1 5.8c-2.1 1.6-4.8 2.8-7.9 3.7-3.1.9-6.4 1.3-10 1.3-7.2 0-14-1.2-21-3.6-6.7-2.4-13-5.1-19-8.1zm-84-123h64v-41H118v41h64v183h51z"/>
</svg> 